<svg width="152" height="40" viewBox="0 0 152 40" fill="none" xmlns="http://www.w3.org/2000/svg">
<path d="M35.144 39H27.416L26.84 25.992C26.68 22.888 26.6 20.12 26.6 17.688C26.6 15.832 26.648 14.072 26.744 12.408L21.608 35.496H14.168L8.696 12.408C8.888 15.192 8.984 17.816 8.984 20.28C8.984 22.136 8.936 24.072 8.84 26.088L8.264 39H0.584L3.08 5.736H13.016L18.008 28.296L22.664 5.736H32.648L35.144 39ZM59.9664 31.608C59.9664 32.568 60.0944 33.272 60.3504 33.72C60.6384 34.168 61.0864 34.504 61.6944 34.728L60.1104 39.672C58.5424 39.544 57.2624 39.208 56.2704 38.664C55.2784 38.088 54.5104 37.192 53.9664 35.976C52.3024 38.536 49.7424 39.816 46.2864 39.816C43.7584 39.816 41.7424 39.08 40.2384 37.608C38.7344 36.136 37.9824 34.216 37.9824 31.848C37.9824 29.064 39.0064 26.936 41.0544 25.464C43.1024 23.992 46.0624 23.256 49.9344 23.256H52.5264V22.152C52.5264 20.648 52.2064 19.624 51.5664 19.08C50.9264 18.504 49.8064 18.216 48.2064 18.216C47.3744 18.216 46.3664 18.344 45.1824 18.6C43.9984 18.824 42.7824 19.144 41.5344 19.56L39.8064 14.568C41.4064 13.96 43.0384 13.496 44.7024 13.176C46.3984 12.856 47.9664 12.696 49.4064 12.696C53.0544 12.696 55.7264 13.448 57.4224 14.952C59.1184 16.456 59.9664 18.712 59.9664 21.72V31.608ZM48.4944 34.392C50.2224 34.392 51.5664 33.576 52.5264 31.944V27.432H50.6544C48.9264 27.432 47.6304 27.736 46.7664 28.344C45.9344 28.952 45.5184 29.896 45.5184 31.176C45.5184 32.2 45.7744 33 46.2864 33.576C46.8304 34.12 47.5664 34.392 48.4944 34.392ZM73.5913 13.512V39H66.0073V13.512H73.5913ZM69.7513 0.0719976C71.0633 0.0719976 72.1353 0.487998 72.9673 1.32C73.8313 2.12 74.2633 3.144 74.2633 4.392C74.2633 5.64 73.8313 6.68 72.9673 7.512C72.1353 8.312 71.0633 8.712 69.7513 8.712C68.4393 8.712 67.3673 8.312 66.5353 7.512C65.7033 6.68 65.2873 5.64 65.2873 4.392C65.2873 3.144 65.7033 2.12 66.5353 1.32C67.3673 0.487998 68.4393 0.0719976 69.7513 0.0719976ZM90.5941 12.696C92.3541 12.696 93.9381 12.952 95.3461 13.464C96.7541 13.976 98.0821 14.76 99.3301 15.816L96.0661 20.328C94.4661 19.112 92.8501 18.504 91.2181 18.504C89.5221 18.504 88.2421 19.128 87.3781 20.376C86.5141 21.624 86.0821 23.64 86.0821 26.424C86.0821 29.112 86.5141 31.016 87.3781 32.136C88.2421 33.256 89.4901 33.816 91.1221 33.816C91.9861 33.816 92.7701 33.688 93.4741 33.432C94.1781 33.144 95.0261 32.696 96.0181 32.088L99.3301 36.792C96.8021 38.808 93.9381 39.816 90.7381 39.816C88.1461 39.816 85.9061 39.272 84.0181 38.184C82.1301 37.064 80.6741 35.512 79.6501 33.528C78.6261 31.512 78.1141 29.16 78.1141 26.472C78.1141 23.784 78.6261 21.4 79.6501 19.32C80.6741 17.24 82.1301 15.624 84.0181 14.472C85.9061 13.288 88.0981 12.696 90.5941 12.696ZM112.625 12.696C116.529 12.696 119.585 13.896 121.793 16.296C124.001 18.664 125.105 21.992 125.105 26.28C125.105 29 124.593 31.384 123.569 33.432C122.577 35.448 121.137 37.016 119.249 38.136C117.393 39.256 115.185 39.816 112.625 39.816C108.753 39.816 105.697 38.632 103.457 36.264C101.249 33.864 100.145 30.52 100.145 26.232C100.145 23.512 100.641 21.144 101.633 19.128C102.657 17.08 104.097 15.496 105.953 14.376C107.841 13.256 110.065 12.696 112.625 12.696ZM112.625 18.264C111.089 18.264 109.937 18.92 109.169 20.232C108.401 21.512 108.017 23.512 108.017 26.232C108.017 29.016 108.385 31.048 109.121 32.328C109.889 33.608 111.057 34.248 112.625 34.248C114.161 34.248 115.313 33.608 116.081 32.328C116.849 31.016 117.233 29 117.233 26.28C117.233 23.496 116.849 21.464 116.081 20.184C115.345 18.904 114.193 18.264 112.625 18.264ZM144.545 12.696C146.753 12.696 148.481 13.368 149.729 14.712C150.977 16.056 151.601 17.944 151.601 20.376V39H144.017V21.672C144.017 20.392 143.809 19.512 143.393 19.032C143.009 18.52 142.417 18.264 141.617 18.264C140.081 18.264 138.609 19.368 137.201 21.576V39H129.617V13.512H136.241L136.769 16.536C137.857 15.256 139.025 14.296 140.273 13.656C141.553 13.016 142.977 12.696 144.545 12.696Z" fill="#141414"/>
</svg>
